<?xml version="1.0" encoding="UTF-8"?>
<svg id="Capa_2" data-name="Capa 2" xmlns="http://www.w3.org/2000/svg" viewBox="0 0 458.1 133.17">
  <defs>
    <style>
      .cls-1 {
        fill: none;
      }

      .cls-2 {
        fill: #fff;
      }

      .cls-3 {
        fill: #b88b5b;
      }
    </style>
  </defs>
  <g id="uuid-a7e545bc-708d-4ba4-97ac-b84b80ba78d4">
    <g>
      <g>
        <g>
          <path class="cls-2" d="M285,88.65h0c-.4,0-.6-.4-.5-.7l6.4-44.5c0-.4.4-.6.7-.5.4,0,.6.4.5.7l-6.4,44.5c0,.3-.3.6-.6.6l-.1-.1Z"/>
          <g>
            <g>
              <path class="cls-2" d="M70,27.15c.6-.2,1.1-.5,1.6-.8.7-.4.7-.9,0-1.4-.4-.3-.8-.6-1.3-.9-.2-.2-.3-.3-.2-.6.3-1.2.5-2.3.7-3.5,0-.4,0-.7-.3-.9-.4-.2-.7,0-.9.2-.6.5-1.2,1-1.9,1.6,0-.4.1-.6.2-.8,0-.3.1-.6-.2-.9-.3-.2-.6-.2-.9,0-1,.4-2,.8-3,1.2-.2,0-.3.1-.5.1-.3,0-.5,0-.5-.4v-1.4c0-.5-.3-.9-.9-1h-10.9c-.4,0-.6-.1-.6-.6v-3.3c0-.7-.4-1-1-1.1h-23.9c-.7,0-1,.4-1,1v3.2c0,.47-.23.7-.7.7h-10.5c-.8,0-1.2.4-1.2,1.2v.9q0,.5-.5.3c-.8-.3-1.6-.7-2.4-1-.3-.1-.6-.2-.9,0-.3.3-.2.6-.2.9,0,.2.2.4,0,.7-.6-.5-1.2-1-1.8-1.5-.3-.2-.6-.4-.9-.1-.3.2-.3.5-.3.9.2,1.1.5,2.3.7,3.4,0,.4,0,.6-.3.8-.5.3-.9.6-1.3,1-.5.4-.4.9,0,1.2.5.3,1,.6,1.6.8.4.1.4.3.2.6-.4,1-.9,2.1-1.3,3.1-.2.5-.1.8.3,1,.3.1.4.3.4.6v6.2c0,.3,0,.5-.4.6-1.3.7-1.3,2.3,0,3.1.3.2.4.4.4.8v17.1c0,.4-.1.6-.4.7-1.2.7-1.2,2.4,0,3.1.3.2.4.4.4.7v17.1c0,.3,0,.5-.4.6-1.3.7-1.3,2.4,0,3.1.3.2.4.3.4.6v17.2c0,.3,0,.5-.4.7-1.3.7-1.3,2.4,0,3.1.3.2.4.4.4.7v2.1c.3,2.5,2.5,4.4,4.9,4.5h3c.3,0,.5,0,.6.3.3.7.9,1,1.6,1s1.3-.4,1.6-1c.1-.2.2-.3.5-.3h1.4c.3,0,.5.1.5.4v1.8c0,.6.3,1,.8,1.1.7.1,1.5.1,2.2,0h.8c1.8.6,3.6,1.1,5.4,1.7.4.1.7.2,1.2.1.7-.1,1.3-.1,2-.2,1.1-.1,2.3-.2,3.4-.4.3,0,.6-.2.7-.5.1-.3,0-.6-.2-.9-.1-.1-.3-.3-.4-.4-.3-.3-.2-.4.1-.5.3,0,.5-.2.8-.3.6-.2.8-.5.8-1.1v-2c0-.5-.2-.8-.7-1-.4-.2-.8-.4-1.2-.6-.3-.1-.4-.2,0-.5s.7-.6,1-.9c.2-.2.3-.4.2-.6,0-.3-.3-.4-.6-.4-2-.2-3.9-.4-5.9-.6-.4,0-.8,0-1.2.1-1.9.6-3.7,1.2-5.6,1.8h-.5c-.6-.1-1.3,0-1.9,0-.8,0-1.1.5-1.1,1.2v1.2c0,.3-.1.4-.4.4h-1.5c-.2,0-.4,0-.5-.3-.3-.6-.8-1-1.6-1s-1.3.4-1.6,1c-.1.2-.3.3-.5.3h-3.1c-2,0-3.7-1.5-4.1-3.4-.1-.7,0-1.5,0-2.2,0-.3,0-.5.4-.7,1.3-.8,1.3-2.4,0-3.1-.3-.2-.3-.4-.3-.7v-17.1c0-.3,0-.5.3-.7.7-.3,1-.9,1-1.5,0-.7-.3-1.3-.9-1.6-.3-.2-.4-.4-.4-.7v-17c0-.4,0-.6.4-.8,1.2-.7,1.2-2.4,0-3.1-.3-.2-.4-.4-.4-.8v-17c0-.4,0-.6.4-.8,1.1-.6,1.3-2.2.3-2.9-.7-.4-.7-.9-.7-1.5v-.5c0-.3.1-.5.4-.6,1-.5,2.1-1.1,3.1-1.7q.6-.3.6.3v63.7c.4,3.3,2.8,6,6.1,6.6,2.4.5,4.8.5,7.2.6,1.9.1,3.9.3,5.8.6,2.6.4,5.1,1.1,7.5,2.4.7.4,1.3.4,2,0,1.1-.6,2.2-1,3.4-1.4,3.3-1,6.7-1.2,10.1-1.4,1.9-.1,3.7-.2,5.6-.5,2-.3,3.7-1.2,5-2.6,1.7-1.8,2.5-3.9,2.5-6.3v-61.7q0-.6.5-.3c.8.4,1.6.9,2.4,1.3,1,.4,1.4,1.1,1.2,2.1,0,.3,0,.5-.4.6-1.3.7-1.3,2.4-.1,3.1.4.2.5.5.5.9v16.9c0,.4,0,.6-.5.8-.6.3-.9.9-.9,1.6s.4,1.2,1,1.5c.3.1.4.3.4.6v17.2c0,5.7,0,0,0,.1,0,.2,0,.4-.3.5-.7.3-1,.9-1,1.6s.4,1.3,1,1.6c.3.1.3.3.3.6v17.3c0,.3,0,.5-.4.6-.7.3-1,.9-1,1.6s.3,1.3,1,1.6c.3.1.3.3.3.6v1.6c0,2-1.5,3.8-3.5,4.1-1.3.2-2.5,0-3.8,0-.2,0-.3-.2-.4-.3-.3-.7-.9-1-1.6-1s-1.3.4-1.6,1.1c0,.2-.2.3-.4.3h-1.6c-.3,0-.4-.1-.4-.4v-1.5c0-.6-.3-1-.9-1.1-.7-.1-1.4-.1-2.1,0h-.7c-1.8-.6-3.5-1.1-5.3-1.7-.5-.2-.9-.2-1.4-.1-1.1.1-2.2.2-3.3.3-.7,0-1.3.1-2,.2-.3,0-.6.2-.7.5-.1.3,0,.6.3.9.2.1.3.3.5.4.2.2.2.3,0,.4-.3.1-.6.2-1,.3-.5.2-.8.6-.8,1.1v1.7c0,.7.3,1.2,1,1.5.4.2.9.4,1.1.5-.3.4-.6.8-.9,1.1-.2.2-.4.4-.3.8.1.3.4.4.7.4,1.8.2,3.5.4,5.3.6.7,0,1.3,0,2-.2,1.7-.6,3.5-1.1,5.2-1.6.1,0,.3-.1.4,0h1.8c.9,0,1.3-.4,1.3-1.3v-1.4c0-.4.1-.6.5-.5h1.3c.3,0,.5,0,.6.4.3.6.8,1,1.5,1s1.3-.3,1.6-1c.1-.3.3-.4.7-.4h2.9c2.9,0,5.1-2.2,5.1-5.1v-1.4c0-.4,0-.6.4-.7.6-.3.9-.8.9-1.5s-.3-1.3-.9-1.6c-.3-.2-.4-.4-.4-.7v-17c0-.4,0-.6.4-.8.6-.3.9-.9.9-1.6s-.3-1.2-.9-1.5c-.4-.2-.4-.4-.4-.7v-17c0-.4,0-.6.4-.8.6-.3.9-.8.9-1.5s-.3-1.2-.9-1.5c-.4-.2-.5-.4-.5-.8v-14c0-4.7,0-2,0-3.1,0-.3,0-.5.3-.6.7-.3,1-.8,1.1-1.6,0-.8-.4-1.3-1-1.7-.2-.1-.3-.2-.3-.5v-6.5c0-.1,0-.3.2-.4.7-.4.7-.6.4-1.3-.4-1-.9-2.1-1.3-3.1,0-.1-.2-.3.1-.4M35.2,114.25c0-.2-.2-.7.3-.7.6,0,.3.5.4.7v.4c0,.3-.2.3-.4.3s-.3-.1-.3-.3v-.5M24.7,111.35c1.6-.5,3.1-1,4.7-1.5.4-.1.8,0,1.2,0,1.5.1,2.9.3,4.4.4h.2c0,.1,0,.2-.1.3-.2.2-.4.2-.6.1-1-.2-2-.3-3-.5-.3,0-.6,0-.9.1-2.1,1.1-4.3,2.1-6.4,3.2-.33.2-.5.1-.5-.3v-.5q0-1,1-1.4M34.2,111.95c.3,0,.6.3.5.7,0,.3,0,.5-.4.5-.5,0-.3-.4-.4-.6.1-.2-.1-.5.2-.5M34.7,114.35v.5c0,.2-.1.2-.3.2s-.4,0-.4-.2v-1c0-.2.1-.3.3-.3s.3,0,.3.3v.5M34,116.25v-.4c0-.1,0-.2.2-.3h.4c.2.2,0,1-.2,1.1-.3.2-.5.1-.5-.3v-.3h0l.1.2ZM32.8,116.85v-.4h0v-.5c0-.3.1-.3.4-.3.2,0,.3.1.3.3v.9c0,.3-.2.4-.5.4s-.2-.3-.2-.4M33.1,115.05c-.5,0-.3-.4-.4-.7v-.4c0-.2,0-.4.3-.4.2,0,.4.1.4.3v.5c0,.2.2.7-.3.7M32.8,112.25v-.4c0-.2,0-.4.2-.4s.5,0,.5.3v1.1c0,.2-.2.2-.3.2-.2,0-.3,0-.3-.2v-.6h0M31.6,115.95c0-.2,0-.4.3-.4.2,0,.4,0,.4.3v1.2c0,.3-.2.3-.4.3-.3,0-.2-.2-.2-.3v-.6h0v-.5M31.9,115.05c-.3,0-.3-.1-.3-.4v-.8c0-.3.1-.4.4-.4s.3.2.3.4v.8c0,.3,0,.4-.4.4M31.5,112.15v-.6c0-.2,0-.3.3-.3.2,0,.4,0,.4.3v1.3c0,.2-.1.3-.3.3s-.4,0-.4-.3v-.7h0ZM31,114.75c0,.2-.1.3-.3.3s-.4,0-.4-.3v-.9c0-.2.1-.3.3-.3s.4,0,.4.3v.4h0v.4M30.7,113.05c-.2,0-.4-.1-.4-.4v-1c0-.3.2-.4.5-.5q.2,0,.2.2v.7h0v.6c0,.2,0,.4-.3.4M30.4,115.85c0-.2.2-.2.4-.2s.3,0,.3.2v.7h0v.4c0,.1.1.4-.1.4s-.5,0-.5-.4v-1.2M29.8,112.45c0,.3.1.7-.4.7-.4,0-.3-.3-.3-.5,0-.4.3-.7.5-.7.3,0,0,.4.2.5M29.6,116.75c-.3,0-.6-.3-.5-.6,0-.2,0-.5.3-.5.5,0,.3.4.4.7,0,.1.2.5-.2.5M29.1,113.95c0-.3,0-.4.4-.4.3,0,.4.2.3.4v.4h0v.5c0,.2-.2.3-.3.3s-.3,0-.3-.3v-.9M28.6,114.75c0,.2-.1.3-.3.3s-.3,0-.3-.3v-.8c0-.2.1-.3.3-.3s.4,0,.4.3v.9M27.4,113.85v.4h0v.5c0,.2-.2.3-.3.3-.2,0-.3,0-.3-.3v-.9c0-.2.1-.3.3-.3s.3,0,.3.3M26.1,114.65c0,.3,0,.4-.3.2-.3-.1-.6-.3-.8-.4-.2-.1-.2-.2,0-.3s.5-.2.7-.4c.4-.2.5-.2.5.3v.6M23.7,115.45q0-.6.5-.3c2,1,3.9,1.9,5.8,2.9.7.4,1.4.5,2.1.3.7-.2,1.5-.3,2.3-.4.33,0,.63.13.9.4-1.2.1-2.4.3-3.5.4h-.8c-1,.2-1.9,0-2.8-.3-1.3-.5-2.7-.9-4-1.2-.4-.1-.6-.3-.5-.7v-1M21,111.65h1.3c.3,0,.4.2.4.5v4.4c0,.3-.1.5-.5.5h-1.2c-.3,0-.4-.2-.4-.4v-4.5c0-.3.1-.5.4-.5M15.8,113.25c.5,0,.9.4.9.9s-.4.9-.9.9-.9-.4-.9-.9.4-.9.9-.9M41.3,110.35c1.6-.2,3.2-.3,4.8-.5h.7c1.7.5,3.3,1,5,1.6q.7.2.7,1v.3c0,.73-.33.93-1,.6-2-1-4-1.9-5.9-2.9-.3-.2-.6-.2-1-.2-.9.2-1.9.3-2.8.5h-.4c-.2,0-.4-.2-.4-.3,0-.2.2-.1.4-.2M51.3,114.45c-.1,0-.2.1-.4.2-.3.1-.7.5-.9.3-.3-.2,0-.7,0-1.1,0-.1,0-.2.2-.1.3.2.7.4,1.1.6.1,0,0,.2,0,.2M49.5,114.35v.4c0,.2-.1.3-.3.3s-.3,0-.3-.3v-.9c0-.2.1-.3.3-.3s.3.1.3.3v.4M48.3,114.65c0,.3,0,.4-.4.4-.3,0-.3-.2-.3-.4v-.4h0v-.4c0-.2.2-.3.4-.3s.3,0,.3.3v.8M46.3,116.25c0-.3-.1-.6.4-.6.4,0,.4.3.4.5,0,.4-.3.7-.5.6-.3,0-.1-.4-.2-.5M47,114.75c0,.3-.1.3-.4.3-.2,0-.3,0-.3-.3v-.8c0-.3,0-.4.4-.4.3,0,.3.2.3.4v.3h0v.4M46.7,112.95c-.5,0-.3-.4-.4-.6.1-.2-.1-.5.2-.5s.6.2.5.6c0,.2,0,.5-.3.5M45.1,116.55h0v-.6c0-.3.1-.3.4-.3.2,0,.3.1.3.3v1.1c-.1.1-.3.3-.5.2-.2,0,0-.3,0-.4v-.4M45.8,114.35h0v.4c0,.2-.1.3-.3.3s-.4,0-.4-.3v-.9c0-.3.1-.3.4-.3.2,0,.3.1.3.3v.4M45.8,112.75c0,.2-.2.3-.3.3-.2,0-.3,0-.3-.3v-.7h0v-.4c0-.2,0-.4.2-.4s.5.1.5.4v1.1M43.9,113.85c0-.2.1-.3.3-.3s.4,0,.4.3v.9c0,.2-.1.3-.3.3s-.4,0-.4-.3v-.4h0v-.4M43.9,115.95c0-.2.2-.3.4-.3s.3,0,.3.3v.6h0v.6c0,.2,0,.4-.2.3-.2,0-.4,0-.4-.3v-1.2M44.6,112.05v.6c0,.2-.1.3-.3.3s-.3,0-.3-.3v-1.1c0-.3.2-.4.4-.4.3,0,.2.2.2.4v.5h0ZM42.6,114.35v-.4c0-.2,0-.3.3-.3.2,0,.4,0,.4.3v.5c0,.2.2.7-.4.7-.5,0-.3-.5-.3-.7M42.6,111.85c0-.3.2-.4.4-.4.3,0,.2.2.3.4v.8c0,.2,0,.4-.3.4s-.4-.1-.4-.4v-.8M42.6,115.85c0-.2.2-.2.3-.2.2,0,.3,0,.4.3v.5h0v.4c0,.2,0,.4-.3.4-.2,0-.4,0-.4-.3v-1M42,116.75c-.3,0-.5-.3-.5-.6,0-.2,0-.5.4-.4.5,0,.3.4.4.6,0,.1.1.4-.2.5M41.8,112.95h-.2c-.2-.2-.1-1,.1-1.1.3-.2.4-.1.5.3v.3c0,.2.2.7-.4.6M41.8,113.55c.3,0,.3.2.3.5v.7c0,.3,0,.4-.4.4-.3,0-.3-.2-.3-.4v-.7c0-.3,0-.4.4-.4M40.9,114.35v.5c0,.2-.2.3-.3.3s-.3,0-.3-.3v-.9c0-.2.1-.3.3-.3s.3,0,.3.3v.4h0M52.1,117.15c-1.8.6-3.6,1.1-5.4,1.7-.5.1-1,0-1.4,0-1.4-.1-2.8-.3-4.2-.4,0,0-.2,0-.2-.1.2-.3.3-.4.7-.4,1,.2,1.9.3,2.9.5.4,0,.8,0,1.1-.2,2.1-1.1,4.3-2.1,6.4-3.2.4-.2.5-.2.5.3v1.3c0,.3-.1.4-.4.5M55.5,116.55c0,.3-.2.5-.5.4h-1.1c-.4,0-.6-.2-.6-.6v-4.3c0-.4.2-.6.6-.6h1.1c.3,0,.5.1.5.5v4.5M60.3,115.05c-.5,0-.8-.4-.8-.9s.4-.9.9-.9.9.5.9.9c0,.5-.5.9-.9.9M69.8,20.05s.2-.3.3-.2c.1,0,0,.2,0,.4-.2.9-.4,1.9-.6,2.8,0,.5-.3.6-.8.7-1,0-2.1.1-3.1.2-1.3,0-2.5.1-3.8.2h-.4c-.4,0-.7-.2-.6-.6,0-.3.3-.2.5-.2.8,0,1.6,0,2.3-.1h2c.2,0,.4-.1.6-.2,1.3-.8,2.4-1.8,3.5-2.8M54.7,25.75c-1.7-.3-3.5-.6-5.2-.9-.3,0-.5-.1-.5-.4s0-.5.4-.5h.4c1.1,0,2.3.2,3.4.3h.7c.2,0,.3-.2.3-.4s-.1-.3-.3-.3h-1c-.4,0-.4-.2-.4-.5s0-.5.4-.5c.5,0,1,0,1.5.1.5.2.9.7,1.3,1v.3c0,.3.2.5.4.6.7.2,1.5.4,2.3.3.5,0,.9-.3,1.3-.6,0,0,.2-.3.3-.2,0,0,.1.2.1.4,0,1.2-.3,2.2-.9,3.1-.6.9-1.3,1.2-2.5.8-2-.7-4.1-1.2-6.2-1.8-.2,0-.3,0-.5-.2-.2-.1-.3-.3-.3-.5s.3,0,.5,0c1.4.2,2.8.5,4.1.7.2,0,.4,0,.5-.2,0-.3-.1-.4-.4-.4M56.5,23.75c0-.1.1-.2.3-.2,1-.2,1.9-.5,2.9-.7h.2v.3c-.5.6-1,1-1.9,1-.3,0-.8-.1-1.2-.2-.1,0-.3,0-.3-.2M59.4,28.55q.2,0,.3.1c.7.9,1.5,1.8,2.2,2.7.2.2.1.9,0,1.1h-.4c-.87-.2-1.43-.73-1.7-1.6-.2-.7-.4-1.4-.5-2,0-.3,0-.4.2-.4M62,30.45c-.5-.8-1.2-1.5-1.8-2.2-.2-.3,0-.4,0-.6.1-.2.3-.1.4,0,1.9,1.1,3.8,2.2,5.6,3.3.2.1.3.2,0,.4-.3.2-.5.4-.7.6-.1,0-.2.2-.5.1-1-.4-2.4-.3-3.2-1.6M66.1,29.95c-1.7-1-3.4-2-5.1-3-.2-.1-.4-.2-.2-.5,0,0,0-.2.2-.1,0,0,.2,0,.2.1,1.7,1,3.4,2,5.1,3,.1,0,.4.1.3.4s-.3.2-.6,0M63.2,21.15c.3,0,.6,0,1-.2.9-.4,1.7-.7,2.6-1.1.1,0,.3-.2.4,0,.1.1,0,.3,0,.4v.4c0,.9-.6,1.3-1.3,1.7-.1,0-.2.1-.4.1-1.5,0-2.9.1-4.4.2-.2,0-.5,0-.7-.2-.3-.3-.6-.2-.9-.1-1,.2-1.9.4-2.8.7-.4.1-.7,0-1.1-.3.8-.4,1.5-.9,2.2-1.2h.4c1.7,0,3.4-.1,5.1-.2M13,19.05q0-.6.6-.6h10.5c1,0,1.3-.3,1.3-1.3v-3.1c0-.4.1-.5.5-.5h23.2c.4,0,.5.1.5.5v3.1c0,1,.3,1.3,1.3,1.3h10.2c3.4,0,.3,0,.5,0s.3.1.3.3v1.3c0,.2-.1.3-.3.3h-3.8c-.2,0-.4,0-.6.2-.5.3-1,.5-1.4.8-.3.2-.6.2-.9.2h-2.2c-.6,0-.8.2-.8.8v.3c0,.5-.2.5-.6.5-.7,0-1.5-.1-2.2-.2-.7,0-.9.2-.9.9v.7c0,.2,0,.4.3.5.5.2.7.6.9,1.1.2.4.5.6.9.7,2.5.7,4.9,1.4,7.4,2.1h.3c.6-.1.7.2.8.7.2.8.4,1.6.7,2.3,0,.3.3.5.6.6.8.1,1.5.6,2.3.4h.3c.6.3,1.3.7,1.9,1,.2.1.3.3.3.5v7.1c-.2,0-.3-.3-.4-.4-3.2-4-6.4-8-9.6-12-.3-.4-.8-.6-1.3-.6-.4,0-.9,0-1.3.1-.4,0-.7.3-1,.5-1.4,1.2-2.4,2.7-3.3,4.3-.3.6-.7.7-1.3.7-1.2,0-2.5,0-3.7-.1-.5,0-.9.1-1.3.5-.3.3-.6.4-1,.2-.1,0-.2,0-.3-.1-1-.6-2.1-.4-3.1-.3-.3,0-.5.1-.7.3-.4.3-.7.5-1.1.8-.3.2-.5.2-.8,0-.7-.9-1.9-.8-2.6.1-.5.6-.9,1.3-1.4,1.9-.3.5-.5.5-1,.1-1.9-1.4-3.8-2.9-5.6-4.4-.6-.4-1.1-.9-1.7-1.3-.4-.3-.8-.3-1.3-.3-1.3.2-2.2.9-2.9,2-2,2.8-4.2,5.5-6.3,8.3,0,.1-.1.3-.3.3-.1-.1,0-.3,0-.4v-7.1c0-.4,0-.7.5-.8.2,0,.3-.2.5-.3.9-.8,2.1-.7,3.2-.9.8-.1,1.2-.5,1.4-1.3.1-.7.4-1.4.6-2.2,0-.2.1-.4.4-.3h.6c2.4-.7,4.7-1.4,7.1-2.1.6-.2,1-.5,1.2-1,.1-.3.3-.6.7-.8.2,0,.3-.3.3-.6v-.6c0-.7-.2-1-1-.9-.7,0-1.4,0-2.1.1-.5,0-.6,0-.6-.5,0-.9-.2-1-1-1h-1.3c-.8,0-1.5,0-2.2-.6-.9-.8-2.1-.7-3.2-.8h-3.1c-.4,0-.5-.1-.5-.5v-.9M46.4,40.75c-.6-.4-1.2-.7-2-.7-1.8,0-3.3-.9-4.7-1.8-.8-.6-1.7-.6-2.7-.5-.2,0-.3.1-.5.2-.5.3-1.1.7-1.6,1-1.6,1.2-3.5,1.9-5.3,2.6-.1,0-.3,0-.4.2-1.5.7-3.1,1-4.8.9h-11.6c0-.2.1-.3.2-.4,2.1-2.8,4.3-5.6,6.4-8.4.3-.4.7-.5,1.1-.6.8-.3,1.4-.2,2,.4,1,.9,2.1,1.6,3.1,2.4,0,0,.2,0,.2.3h-3.8c-.3,0-.4.1-.4.4s.1.4.4.4h3.7c.9,0,1.7.1,2.4.8.4.3.8.6,1.2.9.7.5,1.3.4,1.9-.3.5-.7,1-1.4,1.5-2,.4-.6.9-.6,1.4,0,.4.5,1,.6,1.6.3.4-.2.7-.4,1-.7.9-.6,1.9-.5,2.9-.3.4,0,.7.3,1.1.4.5.2,1,.2,1.5-.2.4-.4.9-.5,1.4-.5,1.3.1,2.6,0,3.8,0,.3,0,.5,0,.8.2,2.7,1.3,5.4,2.5,8.1,3.8.3.1.5.2.7-.2.2-.4,0-.5-.3-.6-2.5-1.2-5.1-2.4-7.6-3.6-.4-.2-.4-.4-.2-.7.3-.5.7-1,.9-1.5.6-1.1,1.5-1.9,2.4-2.7.4-.4.9-.2,1.4-.3.5-.1.8,0,1.1.5,1.4,1.8,2.8,3.6,4.3,5.4,0,.1.3.2.2.4,0,.1-.3,0-.4,0h-2.5c-.3,0-.5,0-.5.4s.2.4.5.4h3.4c.3,0,.5,0,.7.3,1.3,1.6,2.6,3.2,3.8,4.8,0,.1.2.2.2.3,0,.2-.3,0-.4.1h-13.5c-.4,0-.8-.1-1.1-.3-.8-.5-1.7-1-2.5-1.5M47.6,42.55h-18.1c.5-.2,1-.4,1.4-.5,1.7-.5,3.2-1.4,4.7-2.4.3-.2.6-.4.9-.6.9-.6,1.7-.6,2.6,0,.8.5,1.7.9,2.6,1.4.7.4,1.5.4,2.2.5,1.5,0,2.6,1.1,3.7,1.8M9.9,30.85c1.2-.7,2.5-1.5,3.7-2.2.6-.4,1.2-.7,1.8-1.1.1,0,.3-.2.5,0,.1.2.3.4,0,.6-.8,1-1.6,2-2.4,3l-.1.1c-.8.3-1.7.5-2.4.7-.2,0-1.3-.7-1.3-.9s.1-.2.3-.3M9.4,29.85q0-.2.2-.3c1.8-1.1,3.6-2.1,5.4-3.2,0,0,.2-.2.3,0,0,0,0,.2.1.2,0,.2-.1.3-.3.3-1.7,1-3.4,2-5.1,3,0,0-.2.1-.3.1-.2,0-.3,0-.4-.2M16.5,24.45c.6.4,1.3.5,2,.4.3,0,.5-.1.8-.1.6,0,1-.3,1.1-1v-.1c.4-.3.8-.7,1.2-.9.5-.3,1.1-.2,1.7-.1.3,0,.2.3.2.6,0,.2,0,.4-.3.4h-1c-.2,0-.3.1-.3.3s.1.3.3.3c.6,0,1.1,0,1.7-.1.9,0,1.9-.1,2.8-.2.2,0,.5,0,.5.3s0,.5-.4.6c-1.8.3-3.5.6-5.3.9-.2,0-.4,0-.4.4,0,.3.2.4.5.3,1.4-.2,2.8-.5,4.1-.7.2,0,.4-.2.5,0,0,.2-.1.4-.3.5,0,0-.2.1-.4.2-2.3.7-4.7,1.4-7,2.1-.5.1-.8,0-1.1-.3-1.2-1.2-1.6-2-1.6-3.5,0-.2-.1-.6,0-.7.2-.1.4.2.6.4M16.2,22.95c0-.1.2-.1.3-.1,1,.2,2,.5,2.9.7.1,0,.2,0,.2.2s-.1.2-.2.2c-.4,0-.9.2-1.2.2-.9,0-1.4-.4-1.9-1v-.2M16.9,29.05c-.2.7-.4,1.4-.6,2.1-.3,1.2-.5,1.3-1.7,1.4h0c-.2,0-.3,0-.3-.2,0-.3-.3-.7,0-1,.6-.8,1.3-1.6,1.9-2.3,0-.1.2-.2.3-.3.1-.1.2-.3.4-.2.2.1.2.3.2.5M9.2,19.75c.7.3,1.4.5,2,.8.9.5,1.9.5,2.8.6,1.3,0,2.6,0,3.9.1.3,0,.5,0,.7.2.5.3,1.1.6,1.6.9.1,0,.3,0,.3.2s-.2.2-.3.2c-.2.1-.4,0-.6,0-.9-.2-1.9-.4-2.8-.7h-.8c-.5.5-1.2.3-1.8.3-1.1,0-2.2-.1-3.3-.2-.7,0-1.5-.7-1.7-1.4,0-.3-.1-.6-.2-.9,0-.3,0-.4.3-.3M5.9,19.85h.1c.8.6,1.5,1.2,2.3,1.9.5.5,1.1.8,1.7,1.2.5.3,1,.2,1.5.2,1.1,0,2.2,0,3.2.1.5,0,.6.1.5.7,0,.3-.2.3-.4.3-1.9-.1-3.8-.2-5.7-.3-.6,0-1.3,0-1.9-.1-.3,0-.5-.2-.6-.5-.2-1.1-.4-2.2-.7-3.3M4.8,25.75c-.1,0,0-.2,0-.2.5-.4,1-.7,1.5-1.1.3-.2.6,0,.9,0,2.5.1,5,.3,7.5.4.2,0,.4,0,.4.3s-.1.3-.3.4c-1,.1-2.1.3-3.1.4-1.7.2-3.4.4-5.1.6-.7,0-1.1-.4-1.7-.7M5.5,31.05c.4-.9.8-1.7,1-2.6.3-1.2,1-1.6,2.2-1.6,1.7,0,3.3-.4,5-.5-2.7,1.6-5.4,3.2-8.1,4.8h0M6.9,105.75c0,.5-.4.9-.9.9s-.9-.4-.9-.9.4-.9.9-.9.9.4.9.9M6.9,84.15c0,.5-.4.9-.9.9s-.9-.4-.9-.9.4-.9.9-.9.9.4.9.9M6.9,62.55c0,.5-.4.9-.9.9s-.9-.4-.9-.9.4-.9.9-.9.9.4.9.9M6.9,40.95c0,.5-.4.9-.9.9s-.9-.4-.9-.9.4-.9.9-.9.9.4.9.9M6.9,36.15q-.5.2-.5-.3v-1c-.3-1.2.3-1.9,1.3-2.3.2,0,.3-.2.4-.2.2,0,.2-.2.1-.4-.1-.2-.2-.3-.4-.2-.4.2-.7.4-1.1.6-.2.1-.3,0-.3-.2,0-.5,0-.9.5-1.1s.9-.5,1.4-.8c.2-.1.3-.1.5,0s.2.3,0,.5c-.2.3,0,.6.2.8.2.2.4.3.6.5.2.2.2.3,0,.5-.4.2-.8.5-1.2.7-.2.1-.3.2-.2.5.1.2.3.2.5.1h.2c1.2-.9,2.5-1.3,3.9-1.6.2,0,.4-.1.5.1,0,.3,0,.4-.2.5-2.1,1.1-4.2,2.3-6.3,3.4M64.8,97.35c0,4.2-2.9,7.5-7.1,8.1-1.8.3-3.6.3-5.5.4-3.6.2-7.1.5-10.5,1.6-1.1.4-2.1.8-3.1,1.3-.4.2-.8.2-1.2,0-2.9-1.5-6-2.3-9.2-2.7-2.5-.3-5-.4-7.5-.5-1.3,0-2.5-.2-3.8-.4-3-.5-5.3-2.9-5.6-5.9v-54.8c0-.6.5-1.1,1.1-1.1h51.2c.8,0,1.1.3,1.1,1.1v26.7h0v26.2M68,32.35c.4.3.9.5,1.3.8.3.2.4.4.4.7v2.2c0,.3,0,.4-.4.2-1.8-1-3.6-2-5.4-3-.3-.2-.7-.4-1-.5s-.3-.3-.2-.6c.1-.3.3-.1.5,0,1.3.3,2.6.8,3.7,1.6,0,0,.2.1.3.2.2.1.3,0,.4-.1.1-.2,0-.3,0-.4-.4-.2-.8-.5-1.2-.7-.2-.1-.3-.3,0-.4.2-.2.5-.4.7-.6.3-.2.4-.5.2-.9-.1-.2,0-.3,0-.4.2-.1.3-.1.4,0,.6.3,1.1.7,1.7,1,.3.2.3.4.3.8,0,.1.1.3,0,.4-.2,0-.3-.1-.4-.2-.3-.2-.6-.3-.9-.5-.2-.1-.4-.2-.5,0-.2.3,0,.4.2.5M71.1,105.75c0,.5-.4.9-.9.9s-.9-.4-.9-.9.4-.9.9-.9.9.4.9.9M71.1,84.15c0,.5-.4.9-.9.9s-.9-.4-.9-.9.4-.9.9-.9.9.4.9.9M71.1,62.65c0,.5-.4.9-.9.9s-.9-.4-.9-.9.4-.9.9-.9.9.4.9.9M71.1,40.95c0,.5-.4.9-.9.9s-.9-.4-.9-.9.4-.9.9-.9.9.4.9.9M70.6,31.05h0c-2.7-1.6-5.4-3.2-8.1-4.8h0c1.3.2,2.7.3,4,.5.7,0,1.3.2,2,.2.2,0,.4,0,.6.3.5,1.3,1,2.5,1.6,3.8M68.9,26.35c-2.4-.4-4.8-.6-7.1-.9h-.4c-.2,0-.4,0-.4-.4,0-.3.2-.3.4-.3,2.1-.1,4.3-.2,6.4-.4.4,0,.7-.1,1.1,0,.5-.1.9,0,1.3.4.3.2.6.5.9.7.2.1.3.2,0,.4-.7.4-1.4.7-2.3.5"/>
              <path class="cls-2" d="M63,47.55c0-1-.9-1.6-1.7-1.4H14.5c-.7,0-1.2.6-1.3,1.3v48.6c0,1.3.2,2.6.9,3.7,1.4,2.4,3.6,3.5,6.3,3.7,2.3.2,4.6.2,6.9.3,3.5.2,7,.7,10.2,2.4.5.3,1,.2,1.5,0,.4-.2.7-.4,1.1-.5,2.9-1.3,6-1.6,9.1-1.8,2.2-.1,4.4-.1,6.6-.4,4.4-.4,7.5-3.8,7.5-8.2v-47.7M55.8,102.55c-1.8.2-3.6.3-5.3.3-3,.1-6,.3-8.9,1.2-1,.3-2,.7-2.9,1.2-.4.2-.8.2-1.2,0-2.2-1.1-4.5-1.7-6.9-2.1-2.2-.3-4.4-.4-6.6-.5-1.7,0-3.5,0-5.2-.4-2.8-.6-4.9-3-4.9-5.9v-48.7c0-.4.2-.6.6-.6h46.5c.8,0,1,.2,1,1v47.5c0,3.4-2.5,6.7-6.3,7.1"/>
              <path class="cls-2" d="M28.4,20.35c0,.1-.1.2-.2.4-.5,1.2,0,2.1,1.2,2.4h.3c.4,0,.4.2.2.5-.5.9-.5,1.8,0,2.7v.5c-.3.6-.3,1.2.2,1.7.3.3.5.6.5.9,0,.4.4.7.9.7.4,0,.7,0,.9.3,0,.1.3.2.5.2.4,0,.8,0,1.1.3.1.1.3.1.5,0,.3,0,.6.1.9.2.8.1,1.6.3,2.4.2h.4c.4.2.8.1,1.1,0h.4c.4.1.9,0,1.2-.2h.3c.9.2,1.5-.6,2.4-.4,0,0,.2,0,.2-.2.2-.2.4-.4.6-.3.7,0,1-.2,1.1-.8,0-.3.2-.5.4-.7.6-.5.7-1.2.2-1.8-.1-.2,0-.3,0-.5.5-.9.4-1.8,0-2.7-.13-.33-.03-.53.3-.6h.3c1.4-.3,1.5-1.3,1.1-2.3,0-.1,0-.2-.2-.3-.4-.5-.2-1,.2-1.5.8-.9.4-1.8-.8-2h-.5c-.2,0-.3,0-.4-.2-1.2-1-1.9-1.1-3.2-.3-.2.1-.3.1-.5,0-.7-.7-1.6-.8-2.3,0q-.2.2-.4,0c-1.1-.9-2.2-.9-3.3,0-.2.1-.3.2-.5,0-.7-.7-1.6-.7-2.3,0-.2.2-.3.3-.6,0-.8-.7-2-.7-2.7,0-.4.3-.8.5-1.3.5-1.3.2-1.7,1.1-.8,2.1.4.4.4.8.1,1.3M39.1,24.05c.2.2.4.4.6.6,0,0,.1.1.1.2s-.1,0-.2,0h-3.2c0-.1,0-.2.1-.3.2-.2.5-.4.7-.7.4-.4.5-.7.2-1.2-.2-.5-.7-.7-1.1-.7-.3,0-.6,0-.9.2-.5.2-.8,0-1.1-.2,2.5-.8,5-.8,7.6,0-.3.3-.5.4-.9.3-.3-.1-.6-.2-.9-.2-.6-.1-1.1.1-1.3.6s-.2.9.3,1.3M34.4,22.95c.2.2.4.2.7.1.4,0,.7-.3,1.1-.3.3,0,.5,0,.6.3s0,.5-.2.6c-.4.4-.9.7-1.1,1.2,0,.2-.3.2-.5.2s-.2-.2-.2-.4c-.3-1.1-1.4-1.8-2.5-1.5-1,.3-1.6,1.5-1.2,2.6,0,.2.3.4,0,.5-.3,0-.5.1-.6-.2-.1-.3-.2-.6-.2-1,0-1.1.6-1.9,1.6-2.4.9-.5,1.8-.4,2.6.2M33.7,25.75c-.3.2-.6.3-.9.5-.4.2-.7,0-.9-.2-.4-.4-.4-.9-.1-1.4.2-.5.6-.8,1.1-.7.5,0,.9.2,1.2.7s.2,1-.4,1.2M33.1,30.15c-.4,0-.4-.2-.5-.5,0-.4.3-.4.6-.5.3,0,.3.2.3.4,0,.3,0,.6-.4.7M34.9,30.15c0,.3-.1.4-.4.4-.2,0-.4-.1-.4-.4v-1.3c0-.3.4-.4.7-.6.1,0,.1.1.1.2v1.6M36.4,29.45v1c0,.3-.1.4-.4.4s-.5-.1-.5-.4v-2.1c0-.3.3-.3.5-.3s.4,0,.4.3v1M37.7,30.65c0,.2,0,.4-.3.4-.2,0-.4-.2-.4-.4v-2.3c0-.8.1-.3.3-.3s.4,0,.4.3v1.2h0v1M39.2,30.55c0,.3-.1.5-.5.5-.3,0-.3-.2-.3-.5v-2.2c0-.3.1-.4.4-.4s.4.1.4.4v2.2M40.6,30.45c0,.3-.2.4-.5.4s-.4-.2-.4-.4v-1.1h0v-1c0-.3.1-.4.4-.4s.5,0,.5.4v2.1M42.1,29.35v.3h0v.7c0,.2-.2.3-.4.3s-.4-.1-.4-.4v-1.7c0-.2.1-.2.3-.1.3.2.6.4.5.9M43.1,30.25c-.4,0-.4-.3-.4-.6,0-.1,0-.5.3-.4.2,0,.6,0,.6.4,0,.3,0,.6-.4.6M45.7,28.25c-.2.4-.6.5-1,.5-.9,0-1.8-.1-2.6-.6-.7-.5-1.4-.7-2.3-.6h-3.6c-.7,0-1.4.2-2,.6-.8.5-1.7.8-2.6.7-.4,0-.8-.2-1.1-.5-.3-.4-.2-.9.2-1.1.3-.2.7-.2,1.1-.2.6,0,1.2-.1,1.7-.4,1.2-.7,2.5-1,3.9-.9h3c.3,0,.5,0,.7.2.4.2.9.4,1.3.6.8.4,1.5.7,2.4.6.2,0,.5,0,.7.2.4.2.5.7.2,1.1M41.9,25.15c0-.7.6-1.3,1.4-1.3.6,0,1,.3,1.1.8.2.5.2,1-.2,1.5-.2.2-.4.3-.7.2-.4-.2-.8-.4-1.3-.6-.2-.1-.3-.3-.3-.5M45.7,26.25c0,.2-.2.2-.4.2-.3,0-.4-.2-.3-.5.4-1-.1-2.3-1.1-2.6-1.2-.3-2.3.3-2.5,1.5,0,.1,0,.3-.2.3s-.4,0-.5-.2c-.3-.5-.7-.9-1.2-1.3-.2-.1-.3-.3-.2-.5,0-.2.2-.4.5-.4.4,0,.8.1,1.2.3.3,0,.5,0,.8-.1.9-.6,1.8-.6,2.7-.1,1,.5,1.5,1.3,1.5,2.3,0,.5,0,.8-.2,1.1M46.7,18.05c0-.2-.2-.4.1-.5.3,0,.6,0,.8.2s.2.3,0,.5c-.1.2-.3.4-.4.6-.3.5-.4.9-.1,1.4.2.4.4.8.4,1.3,0,.4-.2.7-.6.8-.4.1-.8.2-1.2.3h-.3c-1-.8-2.2-.9-3.4-1.2-.7-.2-1.5-.3-2.3-.5.6-.4,1-.7,1.3-1.2.1-.3.2,0,.3,0,.7,1.2,2.5,1.6,3.8,1,1-.5,1.6-1.4,1.5-2.7M41.8,19.15c1.5,1.3,2.9,1,4.1-.4,0,.9-.7,1.5-1.7,1.7-1.1.2-2.1-.3-2.4-1.2M42.9,17.65c.2-.5.9-1,1.5-1s1.2.4,1.5,1c0,.1.2.3,0,.4-.2,0-.3,0-.4-.2-.3-.7-.8-.9-1.4-.7-.4.1-.6.3-.7.7,0,.2-.2.3-.3.2-.2,0,0-.3,0-.4M44.8,18.65c-.5.8-1.7.8-2.4,0h2.4ZM40.8,16.75c.3-.2.7-.2,1.1,0,.3.2.4.6.4,1,0,.2-.2.3-.3.3h-.8c-.3,0-.6.1-.7-.3,0-.4,0-.8.4-1M36.5,17.55c.2-.6.9-1.1,1.6-1.1s1.4.5,1.6,1.2c0,.1.2.3,0,.4-.2,0-.3,0-.4-.2-.2-.5-.5-.8-1.1-.9-.6,0-1.1.2-1.2.9,0,.2-.1.4-.4.3-.3,0-.2-.3-.1-.4M39.5,18.55c-.6.8-2.1.8-2.6.1.8-.2,1.7-.1,2.6-.1M36,18.85c1.2,1.3,3,1.3,4.2,0,.1-.1.2-.5.5-.3.2.1,0,.4,0,.6-.4.8-1.3,1.3-2.7,1.3-.7,0-1.6-.3-2.1-1.3,0-.1-.1-.2-.1-.4v-.2h.2s.1.1.2.2M34,17.15c.2-.5.7-.7,1.2-.5.4.2.7.7.5,1.2,0,.2-.2.2-.3.2h-.8c-.6,0-.8-.3-.6-.9M34.3,19.15c-.2.8-1.2,1.3-2.3,1.2-1-.1-1.8-.8-1.7-1.7,1.2,1.3,2.6,1.5,4,.4M33.4,18.55s.2,0,.2.1,0,.2-.1.2c-.6.5-1.7.4-2.3-.3h2.2M30.2,17.65c.2-.6.9-1.1,1.5-1,.7,0,1.3.5,1.5,1.1v.1c0,.2-.1.2-.3.2,0,0-.1,0-.1-.2-.7-1.2-1.6-1.2-2.2,0,0,.1-.2.2-.3.1-.1,0-.1-.2,0-.3M28.5,17.85c.2-.2.5-.3.7-.3s.2.1.2.3c0,1.2.3,2.3,1.5,2.8s2.3.4,3.4-.4c.2-.2.4-.4.5-.7,0-.1.2-.2.3,0,.3.5.8.9,1.4,1.3-.9.2-1.6.3-2.3.5-1.2.3-2.4.5-3.4,1.3h-.4c-.3,0-.6-.1-1-.2-.6-.2-.8-.5-.7-1.1,0-.3.2-.6.4-.9.3-.6.2-1.1-.1-1.5,0-.1-.2-.2-.3-.4-.2-.2-.3-.5,0-.7"/>
              <path class="cls-2" d="M57.9,75.75h-11.8c-.2,0-.3-.1-.4-.3,0-.7-.1-1.3-.1-2,0-.2,0-.4.3-.4,1.1-.2,1.7-1.2,1-2.4s-1.4-2.4-2.1-3.6c-.1-.2-.3-.3-.5-.2-.5.2-.9.3-1.4.5-1.4.3-2.7.2-3.9-.7-.4-.3-.6-.6-.6-1.1v-10.5c0-3.5,0-.3,0-.5s-.1-.3-.3-.3c-.4,0-.5,0-.5.6v10.1c0,1-.4,1.6-1.2,2-.4.2-.7.3-1.1.4-1.3.3-2.4,0-3.6-.5-.3-.1-.5-.1-.6.2-.7,1.2-1.4,2.4-2.1,3.6-.6,1.1-.2,2,1,2.3.3,0,.4.2.4.5,0,.5,0,1.1-.1,1.6q0,.6-.7.6h-11c-3.6,0-.3,0-.5,0s-.3.1-.3.3c0,.4,0,.5.6.5h11q.7,0,.5.7c-.2.8-.5,1.5-.6,2.3-.5,2.4.5,4.3,2.8,5.2.9.4,1.8.6,2.7.7.4,0,.9.1,1.3.2.6,0,1.1.5,1.5.9.3.3.1.7.1,1v11.9c0,.2,0,.5.3.6.4,0,.5,0,.5-.6v-12.2c0-4.1.4-1.3,1.2-1.6h.4c1-.1,1.9-.2,2.9-.5,1.2-.4,2.3-.9,3.1-1.9,1-1.3.9-2.8.5-4.3-.1-.5-.3-1-.4-1.5q-.2-.8.6-.8h11.4c.3,0,.4-.2.4-.5,0-.4-.3-.4-.6-.4M44.7,83.25c-.8.6-1.7.9-2.6,1.1-.7.1-1.4.3-2.2.4-.6,0-1.2.3-1.7.8-.2.2-.4.2-.6,0-.6-.6-1.4-.8-2.3-.9-1.3-.1-2.6-.4-3.7-1-.2-.1-.4-.2-.6-.4,0,0-.2-.1-.2-.2s.2-.1.3-.1c2.3-.2,4.6-.7,6.9-.5,2.2-.2,4.3.2,6.5.5.1,0,.3,0,.3.1,0,.2-.1.2-.2.3M32.4,79.55v-1.8c0-.3.2-.4.4-.4.3,0,.4,0,.4.4v3.2c0,.3-.4.6-.7.6-.2,0-.2-.2-.2-.3v-1.8M36,80.75c0,.3,0,.5-.5.5q-1.4,0-1.4-1.4v-2.8c0-.4.2-.6.5-.6h.5c.7,0,.8.2.8.9v3.5M39.3,81.05h0v-1.8c0-.7-.5-1.2-1.1-1.2s-1.1.5-1.1,1.2v1.8h0v-4.5c0-.2.1-.4.4-.4h1.6c.3,0,.4.1.4.5v4.4M38.4,80.65c0,.2,0,.4-.3.4-.2,0-.4,0-.4-.3v-1.3c0-.2,0-.4.3-.4.2,0,.4.1.4.3v1.3ZM42.1,78.95v1.9c0,.3-.1.4-.4.4h-1.2c-.2,0-.4-.1-.4-.4v-4.1c0-.3.6-.5,1.3-.4.4,0,.7.1.7.6v1.9M43.8,81.05c0,.2.1.4-.2.5-.3,0-.7-.2-.7-.5v-3.2c0-.3.1-.4.5-.4.3,0,.4.1.4.4v3.3M45.9,81.65c-.1.5-.4.5-.8.5s-.6-.2-.6-.7v-4.4c0-.4-.1-.6-.6-.6h-.6c-.2,0-.4,0-.6-.3-.6-.7-1.4-.8-2.2-.7-.2,0-.4.2-.6-.1,0-.1-.2,0-.4,0h-3.5c-.3.4-.7.2-1,.2-.8,0-1.5.1-1.9.8,0,.1-.2.1-.4.1h-.9c-.3,0-.5.1-.5.5v2.3h0v2.3c0,.3-.1.5-.5.5-.9.1-1,0-1.2-.9s0-1.8.3-2.7c.5-1.7.9-3.5.9-5.3v-.3c0-.53-.27-.8-.8-.8-.7,0-1-.5-.6-1.1.6-1,1.2-2,1.8-3.1.2-.3.4-.2.5,0,1.1.4,2.2.5,3.3.3.9-.2,1.7-.5,2.4-1.1.2-.2.4-.2.6,0,1.6,1.3,3.4,1.5,5.3.9.9-.3.7-.4,1.2.5.5.8,1,1.7,1.5,2.5.1.3.3.5,0,.8-.2.3-.5.3-.9.3q-.6,0-.6.6c-.2,2.1.3,4.1.9,6,.3.9.4,1.9.2,2.8"/>
              <path class="cls-2" d="M17.7,61.15q0,.6.6.6h3.1c0,.1,0,.2-.1.4-.2.3-.4.1-.6,0q-1.1-.2-1.3.9c-.2,1.1-.4,1.1.8,1.3.3,0,.4.2.6.5.3.7,0,1.1-.5,1.4-.1,0-.2.1-.3.2-.2.1-.2.3,0,.4.3.4.7.8,1,1.3.1.2.3.2.5,0s.4-.4.7-.5c.2-.2.4-.2.6,0,0,0,.2.1.3.2.5,0,.5.4.5.8,0,1.1-.1,1,1,1,.8,0,1.2-.4,1.2-1.2,0-.2,0-.3.2-.5q.9-.5,1.7.1s.2.1.3.2c.2.2.3.1.5,0,.3-.4.6-.8,1-1.2.2-.2.1-.4,0-.5-.2-.2-.5-.4-.7-.6-.2-.1-.2-.3-.2-.5,0-.7.4-1.1,1.1-1.1h.3c.2,0,.3-.2.2-.4-.1-.5-.2-1-.3-1.5,0-.3-.2-.3-.5-.3s-.6.1-.9.2c-.4,0-.5-.2-.6-.5,0-.3.3-.1.5-.1h2.7c.4,0,.6-.2.6-.6v-5.2c0-.2,0-.5-.3-.3-.5.2-.5,0-.5-.4,0-1.5-.2-3-.3-4.5,0-.3-.2-.4-.4-.4h-1.6c-.4,0-.5.1-.5.5,0,1.7-.2,3.3-.3,5.1,0-.7-.4-.4-.6-.2-.3.2-.4.1-.4-.2,0-1.6-.2-3.1-.3-4.7,0-.3-.1-.5-.5-.5h-1c-1.2,0-1-.3-1.1,1.1-.1,1.8-.2,3.7-.3,5.5h0v-.6c0-.3.1-.7,0-.8-.2-.2-.5.2-.7.3-.5.3-.6.2-.6-.3,0-1.6-.2-3.2-.3-4.9,0-.3-.1-.4-.4-.4h-1.6c-.4,0-.5.1-.5.5-.1,2.3-.3,4.6-.4,6.8,0,.4-.1.6-.5.7-.4.1-.5.4-.5.8v2M28.5,62.95q.6-.1.8.5c0,.3,0,.4-.3.4-.8,0-1.2.4-1.2,1.2v.2c-.13.53,0,.97.4,1.3.4.3.3.8-.1,1h-.2s-.2-.1-.3-.2c-.2-.2-.4-.4-.7-.5-.3,0-.4.3-.7.4-.2.1-.5.2-.8.3-.3,0-.4.2-.4.4v.7c0,.3-.1.5-.5.5s-.5,0-.5-.4v-.4c0-.5,0-.8-.6-.8-.3,0-.6-.2-.8-.5-.2-.3-.4-.2-.6,0s-.4.3-.5.4c-.2.2-.4.4-.7,0-.3-.3-.3-.6.1-.8l.1-.1c.4-.33.5-.7.3-1.1-.1-.3-.1-.5-.1-.8,0-.4-.1-.5-.4-.5s-.5-.1-.7-.2c-.4-.1-.2-.4-.2-.6,0-.3.2-.4.5-.3.7.3,1.3.2,1.6-.6.2-.5.7-.6,1.3-.4-1.9,1.3-1.6,3.3-.6,4.3,1.1,1.2,3,1.1,4-.2,1.1-1.3.7-3-1-4.2.8-.2,1.1,0,1.6.7.27.4.63.53,1.1.4M24.6,62.15c1.2,0,2.1.9,2.1,2.1s-.9,2-2.1,2c-1.1,0-2-.9-2-2,0-1.2.9-2.1,2-2.1M28.1,56.45c0-1.7.2-3.4.3-5,0-.5.1-.6.9-.5.4,0,.4.3.5.6,0,1.4.2,2.8.3,4.3,0,.3,0,.5-.3.6-.4.2-.8.5-1.2.7q-.4.2-.4-.2v-.4h0M24.3,51.25c0-.3.1-.4.4-.4.9,0,1,0,1,.9,0,1.2.1,2.4.2,3.7.3.6-.2.9-.8,1.2-.3.1-.6.3-.9.5-.2.1-.3.1-.3-.2.1-1.9.2-3.9.3-5.8M19.6,51.25c0-.5.4-.4.7-.4q.7,0,.8.7c0,1.5.2,3,.3,4.5,0,.3,0,.5-.3.7-.5.2-.9.5-1.4.8-.2.1-.3,0-.3-.2.1-2,.2-4,.4-6.1M19.7,58.25c.9-.4,1.7-1,2.5-1.5q.5-.3.5.3v1.4c0,.4.1.5.4.3,1.1-.6,2.2-1.3,3.2-1.9.1,0,.3-.2.4-.2.2,0,0,.3,0,.4v1.3c0,.4,0,.5.4.2,1-.6,2.1-1.2,3.1-1.8.3-.2.4-.2.4.2v3.6c0,.4-.1.5-.5.5h-4.5c-1.8,0-4.3.1-6.8,0-.6,0-.5,0-.6-.6-.2-1.1.2-1.9,1.3-2.3"/>
              <path class="cls-2" d="M33.8,96.85c-1.2-.9-2.3-1.8-3.5-2.8-.2-.2-.4-.4-.3-.7,0-.5-.1-1-.4-1.5-.3-.6-.7-1-1.2-1.3-.6-.3-1.1-.7-1.7-.7-.1,0-.2-.2-.3-.3-.8-1.1-1.7-2.2-2.5-3.2-.2-.2-.3-.5-.4-.8,0-.3-.2-.6-.5-.7-.7-.3-.9-1-1.3-1.5-.2-.3.2-.4.4-.6h.2c.2.4.7.5.9,0,.6-.8,1.4-1.4,2.3-1.8.1,0,.3-.2.4,0v.3c-.2.5-.4,1.1-.5,1.6-.2,1,0,1.9.4,2.8.1.2.2.4.4.3.3,0,.3.1.4.3.5.8,1,1.6,1.8,2.1,1,.7,1.7,1.6,2,2.9,0,.2.1.4.4.4s.4-.2.5-.4c0-.3.1-.6.2-.9.6.8,1,1.7,1.2,2.6,0,.2,0,.3.3.3.2,0,.2-.2.2-.4-.3-1.2-.8-2.2-1.6-3.2-.1-.2-.3-.2-.5-.2s-.3.2-.3.4v.7c-.5-1.1-1.1-2-2.1-2.6-.8-.6-1.4-1.4-1.9-2.3-.1-.3-.3-.5-.6-.5-.2,0-.2-.1-.3-.3,0-.3-.2-.5-.2-.8-.2-1.2.3-2.2.7-3.2.1-.2.3-.5,0-.7-.2-.2-.5-.1-.7,0-1.2.3-2.2,1-3,2-.3-.5-.5-.5-1-.2-.1,0-.3.2-.4.3-.2.2-.3.2-.5,0-.1-.2-.3-.5-.5-.7q-.7-1-1.7-.3c-.2.2-.2.3,0,.5.4.5.7,1.1,1.1,1.6.2.3.2.5,0,.8-.4.8-.6,1.7-.6,2.6,0,1.1,0,2.2.4,3.3-.3,0-.6,0-.7.2-.1.3,0,.4.2.6.6,1,1,2,1.1,3.1v1.1c0,.2,0,.4.3.4.2,0,.3-.2.3-.3v-.1c0-1.4-.2-2.7-.9-3.9,0-.2-.2-.3,0-.4.3,0,.3-.4.2-.7-.5-1.3-.5-2.6-.4-3.9,0-.5.1-1.1.4-1.6,0,0,.1-.3.3-.2.3.3.6.6.6,1.1,0,.4.2.7.5.9.1.1.3.2.4.4,1,1.5,1.9,3,2.9,4.5.1.2.1.4,0,.6-.2.4-.3.8-.2,1.2.2.7-.1,1.2-.6,1.6-1.5,1.3-3,2.6-4.8,3.6-.2.1-.2.4,0,.5h.3c.6-.4,1.3-.8,1.9-1.3.6-.4,1.2-.9,1.8-1.4.3-.2.4-.3.6,0,.4.8.9,1.6,1.6,2.1.2.2.3.3,0,.5,0,0-.2.2-.2.3v.2c0,.2.3.3.5.1s.5-.5.7-.8c0,0,.1-.1.1-.2-.1-.4.1-.5.3-.7.2-.2.3-.4,0-.6-.2-.1-.1-.3,0-.4.1-.2.3-.5.5-.6.4-.2.7-.5.9-.8.4-.5.3-.4,1,.5.7.8,1.3,1.7,1.9,2.5.2.3.4.3.7,0,.5-.4,1-.8,1.5-1.1.6-.3.7-.5.3-.8M21.7,85.25c-.2,0-.2-.2-.4-.2-.3-.1-.5-.5-.6-.8-.2-.6-.6-1.1-.9-1.5v-.3c.2-.2.5-.1.5.8s.7,1.5,1.5,1.7v.2c0,.1-.1.2-.2.3M29.2,92.65s-.1-.1-.2-.2c-.1-.5-.6-.8-1-1-.3-.1-.4-.4-.4-.6.9.3,1.5.9,1.6,1.8M24,89.15c-.5-.7-1-1.5-1.4-2.2,0-.1-.2-.2,0-.4.1-.1.3-.2.4-.3.2,0,.2.1.3.2.6.8,1.2,1.6,1.8,2.4.2.3.1.4-.1.5q-.6.3-.9-.2M24.8,90.35c-.1-.2,0-.4.1-.5.1,0,.3-.2.4-.2.2-.1.4,0,.5.1.2.4.6.6,1.1.7-.5.2-.7.6-.9,1-.2.3-.3.3-.5,0-.2-.4-.5-.8-.7-1.1M25.7,98.15c-.7-.6-1.2-1.4-1.5-2.2,0-.2,0-.3.2-.3.1,0,.2,0,.2.1.4.7.9,1.4,1.6,1.9,0,0,.1.1.1.2,0,.3-.4.5-.6.4M28.6,93.45c-.3.4-.4.8-.5,1.2-.1.6-.5,1.1-1.1,1.3-.3.2-.5.4-.7.7,0,0,0,.2-.2.2,0,0-.1,0-.2-.2-.3-.3-.5-.6-.8-1s-.4-.7,0-1.2c.2-.2.2-.6.1-.9v-.9c0-.2,0-.4.3-.2.2.2.3,0,.3-.2.2-.4.5-.8.7-1.2,0,0,0-.2.2-.2s.2.2.2.3v.4c0,.1.1.3.3.3.7-.2.9.5,1.2.9.1.2,0,.3,0,.5M32.9,97.35c-.4.3-.7.5-1.1.8s-.4-.1-1.1-1.3c-.4-.8-1-1.4-1.7-1.9-.2-.1-.2-.3-.2-.5s.1-.4.3-.5c.2-.1.3,0,.5.2,1.1.9,2.3,1.8,3.4,2.7.3.3.3.4,0,.6"/>
              <path class="cls-2" d="M38,68.95c-1.5,0-2.6,1.1-2.6,2.6s1.1,2.6,2.6,2.6c1.4,0,2.6-1.2,2.6-2.6s-1.2-2.6-2.6-2.6M38,73.35c-1,0-1.8-.8-1.8-1.8s.8-1.8,1.8-1.8,1.8.8,1.8,1.8-.8,1.8-1.8,1.8"/>
              <path class="cls-2" d="M57.8,80.55c-.1,0-.3,0-.3.1-1,1.9-2.8,4.1-4.3,6.1-.4.5-.7.9-1,1.3-1.2.4-2.1,1.4-2.6,2.5v-.2c0-.4.2-.9.3-1.4,2.3-.7,1.9-3.7,1.6-5.2,0,0,0-.1-.1-.2h-.2c-1,.4-1.7,1.2-2.1,2.3-.3,1-.2,2.1.3,3v.3c-.5-1.3-1.5-2.4-2.7-3h-.3s-.1.2,0,.2c.3,1.7,1,4,2.8,4.5-.1,1.1,0,2.3.1,3.8,0,.1.1.2.2.2s0,0,0,0c.1,0,.2-.1.2-.3-.1-.8-.2-1.5-.2-2.2h0c2.5,0,3.6-3,4-4.3h0v-.2h-.4c.2-.3.4-.5.6-.8,1.6-2,3.3-4.2,4.4-6.2,0-.1,0-.3-.1-.3M49.4,86.05c.3-.8.8-1.5,1.5-1.8.2,1.8.2,3.6-1.1,4.2,0-.3.2-.7.3-1.1,0-.1,0-.3-.2-.3-.1,0-.3,0-.3.2,0,.3-.2.6-.2.9-.2-.6-.2-1.4,0-2.1M46.7,86.95c1,.6,1.8,1.7,2.1,2.8-.2-.3-.4-.5-.6-.8,0,0-.2-.1-.4,0,0,0-.1.2,0,.3.3.3.5.7.8,1-1.1-.5-1.6-2.1-1.9-3.4M50,91.85c.3-.4.7-.7,1.2-1,.1,0,.2-.2,0-.3,0-.1-.2-.2-.3,0-.5.3-.9.6-1.2,1,.4-1.5,1.6-2.7,3-3-.4,1.2-1.2,3-2.8,3.5"/>
              <path class="cls-2" d="M56.7,89.55l-3.9,3.9c-.1-.4-.3-.7-.6-1h-.3v.4c.4.4.6,1,.5,1.6-.2,1.3-1.4,2.6-3.2,3.5-.6.3-1.2.4-1.8.5-.3,0-.7.1-1,.1,0,0-.1-.2-.2-.2,0,0-.1-.1-.1-.2v-.4c.2-.4,1.1-.5,1.4-.6h.3c.1,0,.2-.1.3-.2,0,0,.1-.1.2-.1.2,0,.4-.1.6-.1h.2l.1-.1c.1-.2.3-.4.5-.4.1,0,.2-.2.2-.3s-.2-.2-.3-.2c-.3,0-.6.3-.8.6-.2,0-.5,0-.7.2-.1,0-.2.1-.3.2l-.2.1h-.2c-.6.1-1.4.3-1.7.8-.1.2-.2.5,0,.8,0,.1.1.2.2.3h-1c0-.1.1-.2.2-.3,0,0,0-.1.1-.2h0c.1-.5.7-.8,1.3-1.2.4-.2.9-.5,1.2-.8v-.3h-.3c-.2.3-.6.5-1.1.7-.6.3-1.1.7-1.4,1.2h0c0-.1-.1-.2-.2-.3,0-.2,0-.3.2-.4,0,0,.2-.1.3-.2,0,0,.2-.1.3-.2h.2c.1-.3.3-.4.4-.5.3-.2.6-.4.9-.7.5-.5.8-1.1.9-1.9,0,0,0-.2-.1-.2h-.2c-.2.1-.7.2-1,.2h-.2v.2c.1.5-.3.9-.4.9-.2.2-.5.3-.7.2v-.3c.4-1.6.6-2.3,2.4-2.9.1,0,.2-.2.2-.3s-.2-.2-.3-.2c-2,.7-2.3,1.6-2.7,3.2,0,.1,0,.3-.1.5,0,.1,0,.2.1.3.4.2,1,.2,1.5-.2.4-.3.6-.7.6-1.2h.5c-.1.5-.3.8-.7,1.2-.2.2-.5.4-.8.6-.2.1-.3.2-.5.3h-.2c0,.2-.2.3-.3.3s-.3.2-.4.3c-.3.2-.4.5-.3.8,0,.2.1.4.2.6l.2.2c-.1.1-.2.3-.3.5v.4c0,.2.2.3.4.4.1,0,.2,0,.4.1h.8c.5,0,1,0,1.5-.2.6-.1,1.3-.2,1.9-.5,1.9-1,3.3-2.5,3.5-3.9v-.4h0l4.2-4.1v-.3h-.3"/>
              <path class="cls-2" d="M41.8,52.05h0c.4,0,.7.3,1,.7s.7.9,1.4.9h0c.7,0,1-.5,1.3-1,.3-.4.4-.7.8-.7s.7.3,1,.7.7.9,1.4.9,1-.5,1.3-1c.3-.4.4-.7.8-.7h0c.4,0,.7.3,1,.7s.7.9,1.4.9,1-.5,1.3-1c.3-.4.4-.7.8-.7.2,0,.3-.1.3-.3s-.1-.3-.3-.3h0c-.7,0-1,.5-1.3,1-.3.4-.4.7-.8.7s-.7-.3-1-.7-.7-.9-1.4-.9h0c-.7,0-1,.5-1.3,1-.3.4-.4.7-.8.7h0c-.4,0-.7-.3-1-.7s-.7-.9-1.4-.9-1,.5-1.3,1c-.3.4-.4.7-.8.7h0c-.4,0-.7-.3-1-.7s-.7-.9-1.4-.9c-.2,0-.3.1-.3.3s.1.3.3.3"/>
              <path class="cls-2" d="M41.8,54.65h0c.4,0,.7.3,1,.7s.7.9,1.4.9h0c.7,0,1-.5,1.3-1,.3-.4.4-.7.8-.7h0c.4,0,.7.3,1,.7s.7.9,1.4.9h0c.7,0,1-.5,1.3-1,.3-.4.4-.7.8-.7h0c.4,0,.7.3,1,.7s.7.9,1.4.9h0c.7,0,1-.5,1.3-1,.3-.4.4-.7.8-.7.2,0,.3-.1.3-.3s-.1-.3-.3-.3c-.7,0-1,.5-1.3,1-.3.4-.4.7-.8.7h0c-.4,0-.7-.3-1-.7s-.7-.9-1.4-.9h0c-.7,0-1,.5-1.3,1-.3.4-.4.7-.8.7h0c-.4,0-.7-.3-1-.7s-.7-.9-1.4-.9h0c-.7,0-1,.5-1.3,1-.3.4-.4.7-.8.7h0c-.4,0-.7-.3-1-.7s-.7-.9-1.4-.9h0c-.2,0-.3.1-.3.3s.1.3.3.3"/>
              <path class="cls-2" d="M41.8,57.45h0c.4,0,.7.3,1,.7s.7.9,1.4.9h0c.7,0,1-.5,1.3-1,.3-.4.4-.7.8-.7s.7.3,1,.7.7.9,1.4.9,1-.5,1.3-1c.3-.4.4-.7.8-.7h0c.4,0,.7.3,1,.7s.7.9,1.4.9,1-.5,1.3-1c.3-.4.4-.7.8-.7.2,0,.3-.1.3-.3s-.1-.3-.3-.3h0c-.7,0-1,.5-1.3,1-.3.4-.4.7-.8.7s-.7-.3-1-.7-.7-.9-1.4-.9h0c-.7,0-1,.5-1.3,1-.3.4-.4.7-.8.7h0c-.4,0-.7-.3-1-.7s-.7-.9-1.4-.9-1,.5-1.3,1c-.3.4-.4.7-.8.7h0c-.4,0-.7-.3-1-.7s-.7-.9-1.4-.9h0c-.2,0-.3.1-.3.3s.1.3.3.3"/>
              <path class="cls-2" d="M41.8,60.35h0c.4,0,.7.3,1,.7s.7.9,1.4.9h0c.7,0,1-.5,1.3-1,.3-.4.4-.7.8-.7h0c.4,0,.7.3,1,.7s.7.9,1.4.9h0c.7,0,1-.5,1.3-1,.3-.4.4-.7.8-.7s.7.3,1,.7.7.9,1.4.9h0c.7,0,1-.5,1.3-1,.3-.4.4-.7.8-.7.2,0,.3-.1.3-.3s-.1-.3-.3-.3h0c-.7,0-1,.5-1.3,1-.3.4-.4.7-.8.7s-.7-.3-1-.7-.7-.9-1.4-.9-1,.5-1.3,1c-.3.4-.4.7-.8.7s-.7-.3-1-.7-.7-.9-1.4-.9-1,.5-1.3,1c-.3.4-.4.7-.8.7s-.7-.3-1-.7-.7-.9-1.4-.9h0c-.2,0-.3.1-.3.3s.1.3.3.3"/>
              <path class="cls-2" d="M41.8,63.35h0c.4,0,.7.3,1,.7s.7.9,1.4.9h0c.7,0,1-.5,1.3-1,.3-.4.4-.7.8-.7h0c.4,0,.7.3,1,.7s.7.9,1.4.9h0c.7,0,1-.5,1.3-1,.3-.4.4-.7.8-.7h0c.4,0,.7.3,1,.7s.7.9,1.4.9h0c.7,0,1-.5,1.3-1,.3-.4.4-.7.8-.7.2,0,.3-.1.3-.3s-.1-.3-.3-.3h0c-.7,0-1,.5-1.3,1-.3.4-.4.7-.8.7h0c-.4,0-.7-.3-1-.7s-.7-.9-1.4-.9h0c-.7,0-1,.5-1.3,1-.3.4-.4.7-.8.7s-.7-.3-1-.7-.7-.9-1.4-.9h0c-.7,0-1,.5-1.3,1-.3.4-.4.7-.8.7h0c-.4,0-.7-.3-1-.7s-.7-.9-1.4-.9c-.2,0-.3.1-.3.3s.1.3.3.3"/>
              <path class="cls-2" d="M59,49.55c-.2,0-.3.1-.3.3v1.2l-1-1.4h0v15.4c0,.2.1.3.3.3s.3-.1.3-.3v-1.9l.9,1.3h0v.6c0,.2.1.3.3.3s.3-.1.3-.3v-15.4c0-.2-.1-.3-.3-.3M57.8,58.25l.9-1.2v2.5l-.9-1.2v-.1ZM57.8,57.35v-2.3l.8,1.2-.8,1.2v-.1ZM57.8,54.05l.9-1.2v2.5l-.9-1.2v-.1ZM57.8,53.15v-2.3l.8,1.2-.8,1.2v-.1ZM57.8,59.25l.8,1.2-.8,1.2v-2.4ZM57.8,62.45l.9-1.2v2.5l-.9-1.2v-.1Z"/>
            </g>
            <g>
              <g>
                <path class="cls-2" d="M109.1,41.95c0,7.4-5.2,13.1-13.2,13.1s-14-6-14-13.8,5.9-13.9,13.7-13.9,9.3,2.5,11.6,6.2l-6.4,3.7c-.9-1.4-2.7-2.4-5.1-2.4-3.8,0-6.3,2.7-6.3,6.5s1.7,6.8,6.6,6.8,4.5-1.1,5.2-2.8h-5.6v-6.4h13.4v3.1l.1-.1Z"/>
                <path class="cls-2" d="M109.1,41.15c0-7.8,6.2-13.8,14-13.8s14,6,14,13.8-6.2,13.8-14,13.8-14-6-14-13.8ZM129.5,41.15c0-3.7-2.7-6.4-6.5-6.4s-6.5,2.8-6.5,6.4,2.7,6.4,6.5,6.4,6.5-2.8,6.5-6.4Z"/>
                <path class="cls-2" d="M158.4,46.55c0,4.8-3.1,7.8-9.2,7.8h-11.2v-26.4h10.5c6,0,9.1,2.7,9.1,7.4s-1,4.2-2.6,5.4c2.1,1.2,3.4,3.2,3.4,5.9v-.1ZM145.6,34.45v3.5h2.9c.9-.2,1.6-.6,1.6-1.8s-1-1.8-2-1.8h-2.5v.1ZM150.9,45.95c0-1.1-.7-1.7-1.7-1.8h-3.6v3.7h3.2c1.2,0,2.1-.8,2.1-1.9Z"/>
                <path class="cls-2" d="M166.5,27.95v26.4h-7.5v-26.4h7.5Z"/>
                <path class="cls-2" d="M185.8,47.45v6.9h-17.4v-26.4h17.2v6.9h-9.6v2.9h8.7v6.8h-8.7v2.9s9.8,0,9.8,0Z"/>
                <path class="cls-2" d="M196.4,46.05h-1.9v8.3h-7.5v-26.4h10.6c5.7,0,10,3.6,10,9.3s-1.6,5.8-4.1,7.3l5.2,9.9h-8.1l-4.2-8.3v-.1ZM194.5,39.75h2.9c1.6,0,2.6-.9,2.6-2.4s-1-2.5-2.6-2.5h-2.9v4.9Z"/>
                <path class="cls-2" d="M230.5,27.95v26.4h-6l-8.3-12.1v12.1h-7.5v-26.4h6l8.3,12.1v-12.1h7.5Z"/>
                <path class="cls-2" d="M231.5,41.15c0-7.8,6.2-13.8,14-13.8s14,6,14,13.8-6.2,13.8-14,13.8-14-6-14-13.8ZM251.9,41.15c0-3.7-2.7-6.4-6.5-6.4s-6.5,2.8-6.5,6.4,2.7,6.4,6.5,6.4,6.5-2.8,6.5-6.4Z"/>
              </g>
              <g>
                <rect class="cls-3" x="82.6" y="86.95" width="176.8" height="18.1"/>
                <g>
                  <g>
                    <path class="cls-2" d="M102.1,99.45l3.4-3.5c.6-.7,1.1-1.3,1.1-2s-.5-1.3-1.3-1.3-1.3.5-1.7,1.2l-1.6-1c.6-1.4,1.9-2.1,3.3-2.1s3.3,1.1,3.3,3.1-.7,2.2-1.6,3.2l-1.9,1.9h3.7v1.9h-6.6v-1.5l-.1.1Z"/>
                    <path class="cls-2" d="M116.7,95.95c0-3.1,1.4-5.2,4-5.2s4,2.1,4,5.2-1.4,5.2-4,5.2-4-2.1-4-5.2ZM122.7,95.95c0-2.1-.7-3.3-2-3.3s-2,1.2-2,3.3.7,3.2,2,3.2,2-1.1,2-3.2Z"/>
                    <path class="cls-2" d="M132.4,99.45l3.4-3.5c.6-.7,1.1-1.3,1.1-2s-.5-1.3-1.3-1.3-1.3.5-1.7,1.2l-1.6-1c.6-1.4,1.9-2.1,3.3-2.1s3.3,1.1,3.3,3.1-.7,2.2-1.6,3.2l-1.9,1.9h3.7v1.9h-6.6v-1.5l-.1.1Z"/>
                    <path class="cls-2" d="M154.5,99.25h-1.1v1.7h-2v-1.7h-4.7v-1.8l3.3-6.4h2.1l-3.3,6.4h2.6v-2.4h2v2.4h1.1v1.8h0Z"/>
                  </g>
                  <path class="cls-2" d="M168,95.75h5.3v1.8h-5.3v-1.8Z"/>
                  <g>
                    <path class="cls-2" d="M187,99.45l3.4-3.5c.6-.7,1.1-1.3,1.1-2s-.5-1.3-1.3-1.3-1.3.5-1.7,1.2l-1.6-1c.6-1.4,1.9-2.1,3.3-2.1s3.3,1.1,3.3,3.1-.7,2.2-1.6,3.2l-1.9,1.9h3.7v1.9h-6.6v-1.5l-.1.1Z"/>
                    <path class="cls-2" d="M201.6,95.95c0-3.1,1.4-5.2,4-5.2s4,2.1,4,5.2-1.4,5.2-4,5.2-4-2.1-4-5.2ZM207.6,95.95c0-2.1-.7-3.3-2-3.3s-2,1.2-2,3.3.7,3.2,2,3.2,2-1.1,2-3.2Z"/>
                    <path class="cls-2" d="M224,97.85c0,2.1-1.7,3.3-3.5,3.3s-2.8-.7-3.4-2.1l1.7-1c.2.7.8,1.1,1.7,1.1s1.6-.5,1.6-1.3-.6-1.3-1.6-1.3h-.4l-.8-1.1,2-2.6h-3.9v-1.8h6.2v1.6l-1.9,2.4c1.3.4,2.3,1.4,2.3,2.8h0Z"/>
                    <path class="cls-2" d="M232.1,95.95c0-3.1,1.4-5.2,4-5.2s4,2.1,4,5.2-1.4,5.2-4,5.2-4-2.1-4-5.2ZM238.1,95.95c0-2.1-.7-3.3-2-3.3s-2,1.2-2,3.3.7,3.2,2,3.2,2-1.1,2-3.2Z"/>
                  </g>
                </g>
              </g>
            </g>
          </g>
          <g>
            <path class="cls-2" d="M336.6,74.15c0,4.9-3.1,9.1-8.5,9.1h-5.5v7.3h-9.7v-25.5h15.2c5.4,0,8.5,4.2,8.5,9.1h0ZM326.8,74.45c0-1.9-1.1-2.7-2.4-2.7h-1.8v5.5h1.8c1.3,0,2.4-.8,2.4-2.7v-.1Z"/>
            <path class="cls-2" d="M362.2,65.05v14.6c0,6.7-4.9,11.6-12.8,11.6s-12.8-4.8-12.8-11.6v-14.6h9.7v14c0,3,.9,4.3,3,4.3s3-1.2,3-4.3v-14h9.9Z"/>
            <path class="cls-2" d="M373.3,72.35v2.4h6.1v6.1h-6.1v2.4h7.9v7.3h-17.6v-25.5h17.6v7.3h-7.9Z"/>
            <path class="cls-2" d="M406.2,82.95c0,4.4-3.3,7.7-8.7,7.7h-15v-25.5h13.7c5.5,0,8.8,2.6,8.8,7s-1,3.8-2.4,5.1c2.1,1.2,3.6,3.2,3.6,5.7ZM392.3,75.35h1.1c1.1,0,1.9-.6,1.9-1.8s-.9-1.8-1.9-1.8h-1.1v3.6ZM396.5,82.05c0-1.3-1.3-1.8-2.9-1.8h-1.4v3.6h1.4c1.6,0,2.9-.6,2.9-1.8Z"/>
            <path class="cls-2" d="M424.3,83.25v7.3h-17.6v-25.5h9.7v18.2h7.9Z"/>
            <path class="cls-2" d="M453,90.55h-9.7l-1-3h-7.7l-1,3h-9.7l10.1-25.5h8.9l10.1,25.5h0ZM439.8,80.25l-1.4-4.3-1.4,4.3h2.9-.1Z"/>
            <path class="cls-3" d="M407.8,39.55c-6.2,0-11.3,4.9-11.3,10.8s5.1,10.8,11.3,10.8,11.3-4.9,11.3-10.8-5.1-10.8-11.3-10.8ZM414.8,50.75c-.5.8-1.1,1.5-1.7,2.2-1.8,1.9-3.5,3.8-5.3,5.7-1.8-1.9-3.5-3.8-5.3-5.7-.6-.7-1.3-1.4-1.7-2.2-.5-.8-.8-1.8-.7-2.8.1-1.5,1.2-2.8,2.4-3.3,1-.4,2.4-.3,3.3.3.9.6,1.7,1.3,2,2.5.3-1.2,1-1.9,1.9-2.5s2.4-.7,3.4-.3c1.3.5,2.3,1.8,2.4,3.3,0,1-.2,2-.7,2.8h0Z"/>
            <path class="cls-2" d="M322.3,51.25c0,2.6-1.8,4.7-4.7,4.7h-3v4.8h-2v-14h4.3c3.6,0,5.3,1.8,5.3,4.5h.1ZM320.3,51.35c0-1.8-1.4-2.6-2.8-2.6h-2.9v5.2h3c1.5,0,2.7-.8,2.7-2.6h0Z"/>
            <path class="cls-2" d="M337.2,53.75c0,4-3.2,7.2-7.2,7.2s-7.2-3.2-7.2-7.2,3.2-7.2,7.2-7.2,7.2,3.2,7.2,7.2ZM335.2,53.75c0-2.9-2.3-5.2-5.2-5.2s-5.2,2.3-5.2,5.2,2.3,5.2,5.2,5.2,5.2-2.3,5.2-5.2Z"/>
            <path class="cls-2" d="M346.1,60.75l-3.5-4.8h-2.2v4.8h-2v-14h4.3c3.6,0,5.3,1.8,5.3,4.5s-1.2,3.9-3.3,4.5l3.6,5h-2.3.1ZM340.4,53.85h3c1.5,0,2.7-.8,2.7-2.6s-1.2-2.6-2.6-2.6h-3v5.2h-.1Z"/>
            <path class="cls-3" d="M371.9,60.75h-7.9l-.8-2.5h-6.2l-.8,2.5h-7.9l8.2-20.6h7.2l8.2,20.6h0ZM361.2,52.35l-1.2-3.5-1.2,3.5h2.4Z"/>
            <path class="cls-3" d="M396.9,60.75h-7.4l-.4-9.3-2.5,9.3h-5.9l-2.6-9.3-.4,9.3h-7.4l1.5-20.6h8.4l3.4,11.3,3.9-11.3h7.8l1.5,20.6h.1Z"/>
            <path class="cls-3" d="M440.1,60.75h-8.8l-3.9-5.9v5.9h-7.9v-20.6h12.3c4.4,0,6.9,3.4,6.9,7.4s-1.3,5.4-3.6,6.6l5.1,6.7-.1-.1ZM430.8,47.75c0-1.5-.9-2.2-2-2.2h-1.5v4.4h1.5c1.1,0,2-.7,2-2.2Z"/>
            <path class="cls-2" d="M449.2,57.75h-6.3l-1.4,3h-2.2l6.7-14.3,6.7,14.3h-2.2l-1.4-3h.1ZM448.3,55.75l-2.2-4.9-2.2,4.9h4.5-.1Z"/>
          </g>
          <g>
            <path class="cls-2" d="M96,68.05c0,4.2-3,7.7-7.3,7.7h-5.9v-15.4h5.9c4.2,0,7.3,3.5,7.3,7.7ZM94.5,68.05c0-3.5-2.3-6.2-5.8-6.2h-4.4v12.5h4.4c3.4,0,5.8-2.8,5.8-6.2v-.1Z"/>
            <path class="cls-2" d="M106.5,74.25v1.5h-9v-15.4h8.9v1.5h-7.4v5.5h6.8v1.5h-6.8v5.6h7.5v-.2Z"/>
            <path class="cls-2" d="M116.6,74.25v1.5h-8.6v-15.4h1.5v13.9h7.1Z"/>
          </g>
        </g>
        <g>
          <path class="cls-2" d="M139.2,77.15v7h-17.4v-26.5h17.2v6.9h-9.6v2.9h8.7v6.8h-8.7v3h9.8v-.1Z"/>
          <path class="cls-2" d="M139.4,78.05l6.5-3.7c.9,2.4,2.5,3.4,4.8,3.4s2.6-.6,2.6-1.4c0-1.4-2-1.6-4.7-2.4-4.4-1.3-7.9-3.7-7.9-8.5s3.7-8.4,9.5-8.4,8.2,2.1,10,6.2l-6.3,3.7c-.8-2-2.2-2.8-3.6-2.8s-2,.6-2,1.4c0,1.2,1.3,1.6,4.3,2.5,4.2,1.2,8.3,2.8,8.3,8.3s-4,8.5-10.3,8.5-9.8-2.7-11-6.7l-.2-.1Z"/>
          <path class="cls-2" d="M181.1,65.05h-6.2v19.1h-7.6v-19.1h-6.2v-7.3h20.1v7.3h-.1Z"/>
          <path class="cls-2" d="M198,80.75h-7.6l-.9,3.4h-8.1l8.4-26.5h8.9l8.4,26.5h-8.1l-.9-3.4h-.1ZM196.4,74.65l-2.2-8.1-2.2,8.1h4.4Z"/>
          <path class="cls-2" d="M231.1,70.95c0,7.5-5.6,13.2-12.9,13.2h-11v-26.5h11c7.3,0,12.9,5.8,12.9,13.2v.1ZM223.5,70.95c0-3.5-2.2-5.9-5.3-5.9h-3v11.8h3c3.1,0,5.3-2.4,5.3-5.9h0Z"/>
          <path class="cls-2" d="M231.3,70.95c0-7.8,6.2-13.8,14-13.8s14,6,14,13.8-6.2,13.8-14,13.8-14-6-14-13.8h0ZM251.8,70.95c0-3.7-2.7-6.4-6.5-6.4s-6.5,2.8-6.5,6.4,2.7,6.4,6.5,6.4,6.5-2.8,6.5-6.4Z"/>
        </g>
      </g>
      <rect class="cls-1" width="458.1" height="133.17"/>
    </g>
  </g>
</svg>